<svg width="512" height="512" viewBox="0 0 512 512" fill="none" xmlns="http://www.w3.org/2000/svg">
<g clip-path="url(#clip0_2739_20)">
<path fill-rule="evenodd" clip-rule="evenodd" d="M0 208.941C0 93.5461 93.5461 0 208.941 0L303.059 6.5523e-05C418.454 7.62939e-05 512 93.5463 512 208.941V303.059C512 418.454 418.454 512 303.059 512L208.941 512C93.5461 512 -8.97576e-06 418.454 0 303.059V208.941ZM256.352 148.593C238.995 162.602 228 183.626 228 207.121V304.88C228 328.385 239.009 349.409 256.354 363.408C273.711 349.399 284.706 328.374 284.706 304.88V207.121C284.706 183.616 273.697 162.592 256.352 148.593Z" fill="white"/>
<path fill-rule="evenodd" clip-rule="evenodd" d="M208.941 0C93.5462 0 0 93.5461 0 208.941L1.61564e-05 303.059C7.18061e-06 418.454 93.5462 512 208.941 512L303.059 512C418.454 512 512 418.454 512 303.059V208.941C512 93.5463 418.454 7.62939e-05 303.059 6.5523e-05L208.941 0ZM229.647 208.941C229.647 186.321 239.866 166.08 255.999 152.593C272.121 166.07 282.353 186.312 282.353 208.941V303.059C282.353 325.679 272.134 345.921 256.001 359.408C239.879 345.93 229.647 325.689 229.647 303.059V208.941ZM208.941 32.0001C111.219 32.0001 32.0002 111.219 32.0002 208.941L32.0002 303.059C32.0002 400.781 111.219 480 208.941 480H210.754C147.025 446.686 103.53 379.952 103.53 303.059L103.53 208.941C103.53 150.724 150.724 103.53 208.941 103.53C267.159 103.53 314.353 150.724 314.353 208.941L314.353 303.059C314.353 334.599 300.497 362.894 278.569 382.202C286.309 384.594 294.53 385.882 303.059 385.882C348.801 385.882 385.883 348.801 385.883 303.059L385.883 208.941C385.883 111.219 306.663 32.0001 208.941 32.0001ZM408.471 208.941C408.471 132.048 364.975 65.3139 301.246 32.0002H303.059C400.781 32.0002 480 111.219 480 208.941V303.059C480 400.781 400.781 480 303.059 480C205.337 480 126.118 400.781 126.118 303.059L126.118 208.941C126.118 163.199 163.199 126.118 208.941 126.118C217.467 126.118 225.692 127.406 233.431 129.798C211.503 149.106 197.647 177.401 197.647 208.941L197.647 303.059C197.647 360.512 245.666 408.471 303.059 408.471C361.276 408.471 408.471 361.276 408.471 303.059L408.471 208.941Z" fill="black"/>
</g>
<defs>
<clipPath id="clip0_2739_20">
<rect width="512" height="512" rx="4" fill="white"/>
</clipPath>
</defs>
</svg>
