<svg xmlns="http://www.w3.org/2000/svg" width="512" height="512" fill="none"><g clip-path="url(#a)"><path fill="#000" fill-rule="evenodd" d="M208.941 0C93.546 0 0 93.546 0 208.941v94.118C0 418.454 93.546 512 208.941 512h94.118C418.454 512 512 418.454 512 303.059v-94.118C512 93.546 418.454.001 303.059.001zm20.706 208.941c0-22.62 10.219-42.861 26.352-56.348 16.122 13.477 26.354 33.719 26.354 56.348v94.118c0 22.62-10.219 42.862-26.352 56.349-16.122-13.478-26.354-33.719-26.354-56.349zm-20.706-176.94c-97.722 0-176.94 79.218-176.94 176.94v94.118C32 400.781 111.218 480 208.94 480h1.813C147.025 446.686 103.53 379.952 103.53 303.059v-94.118c0-58.217 47.194-105.411 105.411-105.411 58.218 0 105.412 47.194 105.412 105.411v94.118c0 31.54-13.856 59.835-35.784 79.143a82.8 82.8 0 0 0 24.49 3.68c45.742 0 82.824-37.081 82.824-82.823v-94.118c0-97.722-79.22-176.94-176.942-176.94m199.53 176.94c0-76.893-43.496-143.627-107.225-176.94h1.813C400.781 32 480 111.218 480 208.94v94.118C480 400.781 400.781 480 303.059 480s-176.941-79.219-176.941-176.941v-94.118c0-45.742 37.081-82.823 82.823-82.823a82.8 82.8 0 0 1 24.49 3.68c-21.928 19.308-35.784 47.603-35.784 79.143v94.118c0 57.453 48.019 105.412 105.412 105.412 58.217 0 105.412-47.195 105.412-105.412z" clip-rule="evenodd"/></g><defs><clipPath id="a"><rect width="512" height="512" fill="#fff" rx="4"/></clipPath></defs></svg>