<svg width="1779" height="544" viewBox="0 0 1779 544" fill="none" xmlns="http://www.w3.org/2000/svg">
<path d="M1589.7 460V215.2H1634.92V243.76C1644.44 224.38 1660.42 211.46 1691.36 211.46C1739.98 211.46 1778.74 253.28 1778.74 304.28C1778.74 355.28 1739.98 396.42 1691.36 396.42C1661.1 396.42 1645.12 384.18 1635.6 365.82V460H1589.7ZM1634.24 304.28C1634.24 331.82 1653.62 354.94 1683.88 354.94C1713.12 354.94 1732.84 330.8 1732.84 303.94C1732.84 276.4 1713.12 252.94 1683.88 252.94C1653.62 252.94 1634.24 276.74 1634.24 304.28Z" fill="white"/>
<path d="M1470.97 396.42C1422.35 396.42 1383.59 355.28 1383.59 304.28C1383.59 253.28 1422.35 211.46 1470.97 211.46C1501.57 211.46 1517.55 224.04 1527.07 243.08V215.2H1572.63V392H1528.09V363.1C1518.57 383.16 1502.59 396.42 1470.97 396.42ZM1429.49 303.94C1429.49 330.8 1449.21 354.94 1478.45 354.94C1508.71 354.94 1528.09 331.82 1528.09 304.28C1528.09 276.74 1508.71 252.94 1478.45 252.94C1449.21 252.94 1429.49 276.4 1429.49 303.94Z" fill="white"/>
<path d="M1327.54 392V143.8H1373.44V392H1327.54Z" fill="white"/>
<path d="M1223.19 392V215.2H1267.73V248.86C1273.85 223.36 1291.87 209.42 1322.47 211.12V254.3H1316.01C1289.49 254.3 1269.09 271.98 1269.09 301.56V392H1223.19Z" fill="white"/>
<path d="M1123.48 396.42C1068.74 396.42 1032.02 354.94 1032.02 303.94C1032.02 252.94 1070.44 210.78 1123.48 210.78C1176.52 210.78 1213.24 252.94 1213.24 303.94C1213.24 309.04 1212.9 314.48 1211.88 320.26H1079.62C1084.72 341 1100.36 355.62 1123.48 355.62C1143.2 355.62 1158.5 345.42 1166.66 331.82L1202.36 358.68C1188.08 380.78 1158.5 396.42 1123.48 396.42ZM1079.62 285.92H1167C1161.9 266.2 1145.24 250.22 1122.8 250.22C1101.04 250.22 1084.72 264.84 1079.62 285.92Z" fill="white"/>
<path d="M932.109 392L858.329 215.2H912.729L948.089 316.18C951.149 324.68 953.869 335.22 955.569 344.4C957.269 335.22 959.989 324.68 963.049 316.18L998.409 215.2H1051.79L978.349 392H932.109Z" fill="white"/>
<path d="M741.6 396.42C670.88 396.42 617.5 341.34 617.5 273.34C617.5 205 670.88 149.58 741.6 149.58C811.98 149.58 865.02 205 865.02 273.34C865.02 341.34 811.98 396.42 741.6 396.42ZM666.8 273.34C666.8 316.52 695.36 352.22 741.6 352.22C787.5 352.22 815.72 316.52 815.72 273.34C815.72 230.16 787.5 193.78 741.6 193.78C695.36 193.78 666.8 230.16 666.8 273.34Z" fill="white"/>
<path fill-rule="evenodd" clip-rule="evenodd" d="M222 0C99.3928 0 0 99.3928 0 222L1.71661e-05 322C7.62939e-06 444.607 99.3928 544 222 544L322 544C444.607 544 544 444.607 544 322V222C544 99.3929 444.607 8.10623e-05 322 6.96182e-05L222 0ZM244 222C244 197.967 254.858 176.46 271.999 162.13C289.128 176.45 300 197.956 300 222V322C300 346.034 289.142 367.541 272.001 381.871C254.872 367.551 244 346.044 244 322V222ZM222 34.0001C118.171 34.0001 34.0002 118.171 34.0002 222L34.0002 322C34.0002 425.83 118.171 510 222 510H223.927C156.214 474.604 110 403.699 110 322L110 222C110 160.144 160.144 110 222 110C283.856 110 334 160.144 334 222L334 322C334 355.512 319.278 385.575 295.979 406.09C304.203 408.631 312.939 410 322 410C370.601 410 410 370.601 410 322L410 222C410 118.171 325.83 34.0001 222 34.0001ZM434 222C434 140.301 387.786 69.396 320.074 34.0002H322C425.83 34.0002 510 118.171 510 222V322C510 425.83 425.83 510 322 510C218.171 510 134 425.83 134 322L134 222C134 173.399 173.399 134 222 134C231.059 134 239.797 135.369 248.021 137.911C224.722 158.425 210 188.489 210 222L210 322C210 383.044 261.02 434 322 434C383.856 434 434 383.856 434 322L434 222Z" fill="white"/>
</svg>
