<svg xmlns="http://www.w3.org/2000/svg" width="256" height="79" fill="none"><path fill="#fff" d="M228.793 66.204V30.972h6.508v4.11c1.37-2.789 3.67-4.648 8.123-4.648 6.998 0 12.576 6.019 12.576 13.359s-5.578 13.26-12.576 13.26c-4.355 0-6.655-1.761-8.025-4.403v13.554h-6.606Zm6.41-22.411c0 3.963 2.789 7.29 7.145 7.29 4.208 0 7.046-3.474 7.046-7.34 0-3.963-2.838-7.34-7.046-7.34-4.356 0-7.145 3.426-7.145 7.39ZM211.705 57.054c-6.998 0-12.576-5.921-12.576-13.261 0-7.34 5.578-13.36 12.576-13.36 4.404 0 6.704 1.811 8.074 4.552v-4.013h6.557v25.445h-6.41v-4.159c-1.37 2.887-3.67 4.796-8.221 4.796Zm-5.97-13.31c0 3.865 2.838 7.34 7.046 7.34 4.355 0 7.145-3.328 7.145-7.291 0-3.964-2.79-7.39-7.145-7.39-4.208 0-7.046 3.377-7.046 7.34ZM191.063 56.417V20.696h6.606v35.721h-6.606ZM176.044 56.417V30.972h6.411v4.844c.881-3.67 3.474-5.676 7.878-5.431v6.214h-.93c-3.817 0-6.753 2.545-6.753 6.802v13.016h-6.606ZM161.694 57.054c-7.878 0-13.163-5.97-13.163-13.31 0-7.34 5.529-13.408 13.163-13.408 7.633 0 12.918 6.068 12.918 13.408 0 .734-.049 1.517-.195 2.349h-19.036c.734 2.984 2.985 5.088 6.313 5.088 2.838 0 5.04-1.467 6.214-3.425l5.138 3.866c-2.055 3.18-6.312 5.432-11.352 5.432Zm-6.313-15.904h12.576c-.734-2.838-3.131-5.138-6.361-5.138-3.132 0-5.481 2.104-6.215 5.138ZM134.151 56.417l-10.618-25.445h7.829l5.089 14.533c.441 1.224.832 2.74 1.077 4.062.244-1.321.636-2.838 1.076-4.062l5.089-14.533h7.683l-10.57 25.445h-6.655ZM106.733 57.054c-10.178 0-17.86-7.928-17.86-17.714 0-9.836 7.682-17.812 17.86-17.812 10.129 0 17.763 7.976 17.763 17.812 0 9.786-7.634 17.714-17.763 17.714ZM95.967 39.34c0 6.214 4.111 11.352 10.766 11.352 6.606 0 10.667-5.138 10.667-11.352 0-6.215-4.061-11.45-10.667-11.45-6.655 0-10.766 5.235-10.766 11.45Z"/><path fill="#fff" fill-rule="evenodd" d="M31.95 0C14.306 0 0 14.305 0 31.95v14.393c0 17.646 14.305 31.95 31.95 31.95h14.393c17.646 0 31.95-14.304 31.95-31.95V31.95C78.294 14.305 63.99 0 46.344 0H31.95Zm3.167 31.95c0-3.458 1.563-6.554 4.03-8.616a11.2 11.2 0 0 1 4.03 8.617v14.392c0 3.459-1.563 6.554-4.03 8.617a11.2 11.2 0 0 1-4.03-8.617V31.95ZM31.951 4.894c-14.944 0-27.058 12.114-27.058 27.058v14.392c0 14.943 12.114 27.057 27.058 27.057h.277c-9.745-5.094-16.397-15.299-16.397-27.057V31.95c0-8.903 7.217-16.12 16.12-16.12 8.902 0 16.119 7.217 16.119 16.12v14.392c0 4.823-2.119 9.15-5.472 12.102a12.66 12.66 0 0 0 3.745.563c6.995 0 12.665-5.67 12.665-12.665V31.95c0-14.944-12.114-27.058-27.057-27.058Zm30.511 27.058c0-11.759-6.651-21.963-16.396-27.058h.277c14.943 0 27.057 12.114 27.057 27.058v14.392C73.4 61.286 61.286 73.4 46.343 73.4c-14.943 0-27.057-12.114-27.057-27.057V31.95c0-6.995 5.67-12.665 12.665-12.665 1.303 0 2.561.197 3.745.562a16.082 16.082 0 0 0-5.472 12.103v14.392c0 8.785 7.342 16.12 16.119 16.12 8.902 0 16.12-7.218 16.12-16.12V31.95Z" clip-rule="evenodd"/></svg>