<?xml version="1.0" standalone="no"?>
<!DOCTYPE svg PUBLIC "-//W3C//DTD SVG 20010904//EN"
 "http://www.w3.org/TR/2001/REC-SVG-20010904/DTD/svg10.dtd">
<svg version="1.0" xmlns="http://www.w3.org/2000/svg"
 width="700.000000pt" height="700.000000pt" viewBox="0 0 700.000000 700.000000"
 preserveAspectRatio="xMidYMid meet">
<metadata>
Created by potrace 1.14, written by Peter Selinger 2001-2017
</metadata>
<g transform="translate(0.000000,700.000000) scale(0.100000,-0.100000)"
fill="#000000" stroke="none">
<path d="M2655 6994 c-730 -65 -1357 -357 -1846 -860 -431 -445 -688 -974
-786 -1619 -16 -109 -18 -202 -18 -1015 0 -813 2 -906 18 -1015 60 -398 179
-746 362 -1060 133 -228 260 -391 454 -586 75 -74 179 -169 231 -211 454 -361
983 -571 1562 -618 88 -8 410 -10 958 -7 882 4 867 3 1139 58 472 95 943 333
1312 662 515 459 828 1049 936 1762 16 109 18 202 18 1015 0 813 -2 906 -18
1015 -44 293 -122 565 -230 804 -308 681 -875 1217 -1573 1488 -202 79 -371
123 -629 165 -125 21 -166 22 -990 23 -473 1 -878 1 -900 -1z m590 -463 c258
-45 449 -107 680 -221 440 -217 789 -545 1033 -970 115 -200 187 -384 246
-621 66 -267 68 -296 73 -1093 5 -780 0 -908 -42 -1066 -157 -584 -757 -940
-1354 -804 l-72 16 89 93 c223 233 357 523 392 847 14 134 13 1446 -1 1580
-37 346 -189 652 -443 895 -196 188 -431 311 -706 370 -122 26 -450 26 -570
-1 -286 -62 -527 -193 -730 -396 -203 -203 -334 -444 -396 -730 -18 -79 -19
-144 -19 -975 0 -972 -2 -933 61 -1212 162 -723 641 -1369 1299 -1753 l90 -52
-140 6 c-935 38 -1779 643 -2129 1526 -55 141 -107 326 -138 497 -23 128 -23
130 -23 1033 0 903 0 905 23 1033 97 535 333 985 708 1347 386 374 871 603
1414 669 133 17 519 6 655 -18z m1294 -1 c950 -164 1709 -859 1946 -1784 71
-277 70 -262 70 -1246 0 -984 1 -969 -70 -1246 -218 -850 -889 -1521 -1739
-1739 -225 -58 -331 -70 -606 -70 -321 0 -478 25 -770 121 -454 151 -865 449
-1163 844 -192 254 -325 534 -407 854 -73 286 -75 321 -75 1206 0 622 3 801
14 860 28 157 97 327 184 454 53 79 175 206 256 267 263 197 611 268 942 193
l70 -16 -89 -93 c-176 -183 -288 -385 -352 -630 -48 -187 -52 -272 -47 -1080
4 -704 5 -745 25 -836 61 -285 186 -521 380 -721 210 -217 444 -351 733 -420
129 -31 458 -33 588 -4 568 124 982 532 1124 1106 20 82 21 112 25 920 3 842
1 939 -34 1139 -135 790 -624 1490 -1329 1901 l-90 52 145 -5 c80 -4 201 -16
269 -27z m-962 -1692 c151 -157 243 -344 272 -552 15 -106 15 -1466 0 -1572
-29 -210 -131 -413 -284 -564 l-65 -64 -65 64 c-153 151 -255 354 -284 564 -7
50 -11 335 -11 795 0 773 2 805 53 956 49 143 116 252 226 368 40 42 77 77 81
77 3 0 38 -33 77 -72z"/>
</g>
</svg>
